G04 #@! TF.GenerationSoftware,KiCad,Pcbnew,(5.0.0)*
G04 #@! TF.CreationDate,2019-02-13T09:48:48+01:00*
G04 #@! TF.ProjectId,Kicad-PisuPCB,4B696361642D506973755043422E6B69,rev?*
G04 #@! TF.SameCoordinates,Original*
G04 #@! TF.FileFunction,Copper,L1,Top,Signal*
G04 #@! TF.FilePolarity,Positive*
%FSLAX46Y46*%
G04 Gerber Fmt 4.6, Leading zero omitted, Abs format (unit mm)*
G04 Created by KiCad (PCBNEW (5.0.0)) date 02/13/19 09:48:48*
%MOMM*%
%LPD*%
G01*
G04 APERTURE LIST*
G04 #@! TA.AperFunction,NonConductor*
%ADD10C,0.150000*%
G04 #@! TD*
G04 #@! TA.AperFunction,ComponentPad*
%ADD11O,1.740000X2.200000*%
G04 #@! TD*
G04 #@! TA.AperFunction,ComponentPad*
%ADD12R,1.740000X2.200000*%
G04 #@! TD*
G04 #@! TA.AperFunction,ComponentPad*
%ADD13O,1.700000X1.700000*%
G04 #@! TD*
G04 #@! TA.AperFunction,ComponentPad*
%ADD14R,1.700000X1.700000*%
G04 #@! TD*
G04 #@! TA.AperFunction,Conductor*
%ADD15C,0.400000*%
G04 #@! TD*
G04 APERTURE END LIST*
D10*
X182727619Y-79571904D02*
X182346666Y-79571904D01*
X182308571Y-79952857D01*
X182346666Y-79914761D01*
X182422857Y-79876666D01*
X182613333Y-79876666D01*
X182689523Y-79914761D01*
X182727619Y-79952857D01*
X182765714Y-80029047D01*
X182765714Y-80219523D01*
X182727619Y-80295714D01*
X182689523Y-80333809D01*
X182613333Y-80371904D01*
X182422857Y-80371904D01*
X182346666Y-80333809D01*
X182308571Y-80295714D01*
X182994285Y-79571904D02*
X183260952Y-80371904D01*
X183527619Y-79571904D01*
X179730476Y-79610000D02*
X179654285Y-79571904D01*
X179540000Y-79571904D01*
X179425714Y-79610000D01*
X179349523Y-79686190D01*
X179311428Y-79762380D01*
X179273333Y-79914761D01*
X179273333Y-80029047D01*
X179311428Y-80181428D01*
X179349523Y-80257619D01*
X179425714Y-80333809D01*
X179540000Y-80371904D01*
X179616190Y-80371904D01*
X179730476Y-80333809D01*
X179768571Y-80295714D01*
X179768571Y-80029047D01*
X179616190Y-80029047D01*
X180111428Y-80371904D02*
X180111428Y-79571904D01*
X180568571Y-80371904D01*
X180568571Y-79571904D01*
X180949523Y-80371904D02*
X180949523Y-79571904D01*
X181140000Y-79571904D01*
X181254285Y-79610000D01*
X181330476Y-79686190D01*
X181368571Y-79762380D01*
X181406666Y-79914761D01*
X181406666Y-80029047D01*
X181368571Y-80181428D01*
X181330476Y-80257619D01*
X181254285Y-80333809D01*
X181140000Y-80371904D01*
X180949523Y-80371904D01*
X179665714Y-61364761D02*
X179808571Y-61412380D01*
X180046666Y-61412380D01*
X180141904Y-61364761D01*
X180189523Y-61317142D01*
X180237142Y-61221904D01*
X180237142Y-61126666D01*
X180189523Y-61031428D01*
X180141904Y-60983809D01*
X180046666Y-60936190D01*
X179856190Y-60888571D01*
X179760952Y-60840952D01*
X179713333Y-60793333D01*
X179665714Y-60698095D01*
X179665714Y-60602857D01*
X179713333Y-60507619D01*
X179760952Y-60460000D01*
X179856190Y-60412380D01*
X180094285Y-60412380D01*
X180237142Y-60460000D01*
X181046666Y-61364761D02*
X180951428Y-61412380D01*
X180760952Y-61412380D01*
X180665714Y-61364761D01*
X180618095Y-61269523D01*
X180618095Y-60888571D01*
X180665714Y-60793333D01*
X180760952Y-60745714D01*
X180951428Y-60745714D01*
X181046666Y-60793333D01*
X181094285Y-60888571D01*
X181094285Y-60983809D01*
X180618095Y-61079047D01*
X181522857Y-60745714D02*
X181522857Y-61412380D01*
X181522857Y-60840952D02*
X181570476Y-60793333D01*
X181665714Y-60745714D01*
X181808571Y-60745714D01*
X181903809Y-60793333D01*
X181951428Y-60888571D01*
X181951428Y-61412380D01*
X182380000Y-61364761D02*
X182475238Y-61412380D01*
X182665714Y-61412380D01*
X182760952Y-61364761D01*
X182808571Y-61269523D01*
X182808571Y-61221904D01*
X182760952Y-61126666D01*
X182665714Y-61079047D01*
X182522857Y-61079047D01*
X182427619Y-61031428D01*
X182380000Y-60936190D01*
X182380000Y-60888571D01*
X182427619Y-60793333D01*
X182522857Y-60745714D01*
X182665714Y-60745714D01*
X182760952Y-60793333D01*
X183380000Y-61412380D02*
X183284761Y-61364761D01*
X183237142Y-61317142D01*
X183189523Y-61221904D01*
X183189523Y-60936190D01*
X183237142Y-60840952D01*
X183284761Y-60793333D01*
X183380000Y-60745714D01*
X183522857Y-60745714D01*
X183618095Y-60793333D01*
X183665714Y-60840952D01*
X183713333Y-60936190D01*
X183713333Y-61221904D01*
X183665714Y-61317142D01*
X183618095Y-61364761D01*
X183522857Y-61412380D01*
X183380000Y-61412380D01*
X184141904Y-61412380D02*
X184141904Y-60745714D01*
X184141904Y-60936190D02*
X184189523Y-60840952D01*
X184237142Y-60793333D01*
X184332380Y-60745714D01*
X184427619Y-60745714D01*
X185522857Y-61412380D02*
X185522857Y-60412380D01*
X185760952Y-60412380D01*
X185903809Y-60460000D01*
X185999047Y-60555238D01*
X186046666Y-60650476D01*
X186094285Y-60840952D01*
X186094285Y-60983809D01*
X186046666Y-61174285D01*
X185999047Y-61269523D01*
X185903809Y-61364761D01*
X185760952Y-61412380D01*
X185522857Y-61412380D01*
X166965714Y-61364761D02*
X167108571Y-61412380D01*
X167346666Y-61412380D01*
X167441904Y-61364761D01*
X167489523Y-61317142D01*
X167537142Y-61221904D01*
X167537142Y-61126666D01*
X167489523Y-61031428D01*
X167441904Y-60983809D01*
X167346666Y-60936190D01*
X167156190Y-60888571D01*
X167060952Y-60840952D01*
X167013333Y-60793333D01*
X166965714Y-60698095D01*
X166965714Y-60602857D01*
X167013333Y-60507619D01*
X167060952Y-60460000D01*
X167156190Y-60412380D01*
X167394285Y-60412380D01*
X167537142Y-60460000D01*
X168346666Y-61364761D02*
X168251428Y-61412380D01*
X168060952Y-61412380D01*
X167965714Y-61364761D01*
X167918095Y-61269523D01*
X167918095Y-60888571D01*
X167965714Y-60793333D01*
X168060952Y-60745714D01*
X168251428Y-60745714D01*
X168346666Y-60793333D01*
X168394285Y-60888571D01*
X168394285Y-60983809D01*
X167918095Y-61079047D01*
X168822857Y-60745714D02*
X168822857Y-61412380D01*
X168822857Y-60840952D02*
X168870476Y-60793333D01*
X168965714Y-60745714D01*
X169108571Y-60745714D01*
X169203809Y-60793333D01*
X169251428Y-60888571D01*
X169251428Y-61412380D01*
X169680000Y-61364761D02*
X169775238Y-61412380D01*
X169965714Y-61412380D01*
X170060952Y-61364761D01*
X170108571Y-61269523D01*
X170108571Y-61221904D01*
X170060952Y-61126666D01*
X169965714Y-61079047D01*
X169822857Y-61079047D01*
X169727619Y-61031428D01*
X169680000Y-60936190D01*
X169680000Y-60888571D01*
X169727619Y-60793333D01*
X169822857Y-60745714D01*
X169965714Y-60745714D01*
X170060952Y-60793333D01*
X170680000Y-61412380D02*
X170584761Y-61364761D01*
X170537142Y-61317142D01*
X170489523Y-61221904D01*
X170489523Y-60936190D01*
X170537142Y-60840952D01*
X170584761Y-60793333D01*
X170680000Y-60745714D01*
X170822857Y-60745714D01*
X170918095Y-60793333D01*
X170965714Y-60840952D01*
X171013333Y-60936190D01*
X171013333Y-61221904D01*
X170965714Y-61317142D01*
X170918095Y-61364761D01*
X170822857Y-61412380D01*
X170680000Y-61412380D01*
X171441904Y-61412380D02*
X171441904Y-60745714D01*
X171441904Y-60936190D02*
X171489523Y-60840952D01*
X171537142Y-60793333D01*
X171632380Y-60745714D01*
X171727619Y-60745714D01*
X173394285Y-61317142D02*
X173346666Y-61364761D01*
X173203809Y-61412380D01*
X173108571Y-61412380D01*
X172965714Y-61364761D01*
X172870476Y-61269523D01*
X172822857Y-61174285D01*
X172775238Y-60983809D01*
X172775238Y-60840952D01*
X172822857Y-60650476D01*
X172870476Y-60555238D01*
X172965714Y-60460000D01*
X173108571Y-60412380D01*
X173203809Y-60412380D01*
X173346666Y-60460000D01*
X173394285Y-60507619D01*
X154265714Y-61364761D02*
X154408571Y-61412380D01*
X154646666Y-61412380D01*
X154741904Y-61364761D01*
X154789523Y-61317142D01*
X154837142Y-61221904D01*
X154837142Y-61126666D01*
X154789523Y-61031428D01*
X154741904Y-60983809D01*
X154646666Y-60936190D01*
X154456190Y-60888571D01*
X154360952Y-60840952D01*
X154313333Y-60793333D01*
X154265714Y-60698095D01*
X154265714Y-60602857D01*
X154313333Y-60507619D01*
X154360952Y-60460000D01*
X154456190Y-60412380D01*
X154694285Y-60412380D01*
X154837142Y-60460000D01*
X155646666Y-61364761D02*
X155551428Y-61412380D01*
X155360952Y-61412380D01*
X155265714Y-61364761D01*
X155218095Y-61269523D01*
X155218095Y-60888571D01*
X155265714Y-60793333D01*
X155360952Y-60745714D01*
X155551428Y-60745714D01*
X155646666Y-60793333D01*
X155694285Y-60888571D01*
X155694285Y-60983809D01*
X155218095Y-61079047D01*
X156122857Y-60745714D02*
X156122857Y-61412380D01*
X156122857Y-60840952D02*
X156170476Y-60793333D01*
X156265714Y-60745714D01*
X156408571Y-60745714D01*
X156503809Y-60793333D01*
X156551428Y-60888571D01*
X156551428Y-61412380D01*
X156980000Y-61364761D02*
X157075238Y-61412380D01*
X157265714Y-61412380D01*
X157360952Y-61364761D01*
X157408571Y-61269523D01*
X157408571Y-61221904D01*
X157360952Y-61126666D01*
X157265714Y-61079047D01*
X157122857Y-61079047D01*
X157027619Y-61031428D01*
X156980000Y-60936190D01*
X156980000Y-60888571D01*
X157027619Y-60793333D01*
X157122857Y-60745714D01*
X157265714Y-60745714D01*
X157360952Y-60793333D01*
X157980000Y-61412380D02*
X157884761Y-61364761D01*
X157837142Y-61317142D01*
X157789523Y-61221904D01*
X157789523Y-60936190D01*
X157837142Y-60840952D01*
X157884761Y-60793333D01*
X157980000Y-60745714D01*
X158122857Y-60745714D01*
X158218095Y-60793333D01*
X158265714Y-60840952D01*
X158313333Y-60936190D01*
X158313333Y-61221904D01*
X158265714Y-61317142D01*
X158218095Y-61364761D01*
X158122857Y-61412380D01*
X157980000Y-61412380D01*
X158741904Y-61412380D02*
X158741904Y-60745714D01*
X158741904Y-60936190D02*
X158789523Y-60840952D01*
X158837142Y-60793333D01*
X158932380Y-60745714D01*
X159027619Y-60745714D01*
X160456190Y-60888571D02*
X160599047Y-60936190D01*
X160646666Y-60983809D01*
X160694285Y-61079047D01*
X160694285Y-61221904D01*
X160646666Y-61317142D01*
X160599047Y-61364761D01*
X160503809Y-61412380D01*
X160122857Y-61412380D01*
X160122857Y-60412380D01*
X160456190Y-60412380D01*
X160551428Y-60460000D01*
X160599047Y-60507619D01*
X160646666Y-60602857D01*
X160646666Y-60698095D01*
X160599047Y-60793333D01*
X160551428Y-60840952D01*
X160456190Y-60888571D01*
X160122857Y-60888571D01*
X141637142Y-61364761D02*
X141780000Y-61412380D01*
X142018095Y-61412380D01*
X142113333Y-61364761D01*
X142160952Y-61317142D01*
X142208571Y-61221904D01*
X142208571Y-61126666D01*
X142160952Y-61031428D01*
X142113333Y-60983809D01*
X142018095Y-60936190D01*
X141827619Y-60888571D01*
X141732380Y-60840952D01*
X141684761Y-60793333D01*
X141637142Y-60698095D01*
X141637142Y-60602857D01*
X141684761Y-60507619D01*
X141732380Y-60460000D01*
X141827619Y-60412380D01*
X142065714Y-60412380D01*
X142208571Y-60460000D01*
X143018095Y-61364761D02*
X142922857Y-61412380D01*
X142732380Y-61412380D01*
X142637142Y-61364761D01*
X142589523Y-61269523D01*
X142589523Y-60888571D01*
X142637142Y-60793333D01*
X142732380Y-60745714D01*
X142922857Y-60745714D01*
X143018095Y-60793333D01*
X143065714Y-60888571D01*
X143065714Y-60983809D01*
X142589523Y-61079047D01*
X143494285Y-60745714D02*
X143494285Y-61412380D01*
X143494285Y-60840952D02*
X143541904Y-60793333D01*
X143637142Y-60745714D01*
X143780000Y-60745714D01*
X143875238Y-60793333D01*
X143922857Y-60888571D01*
X143922857Y-61412380D01*
X144351428Y-61364761D02*
X144446666Y-61412380D01*
X144637142Y-61412380D01*
X144732380Y-61364761D01*
X144780000Y-61269523D01*
X144780000Y-61221904D01*
X144732380Y-61126666D01*
X144637142Y-61079047D01*
X144494285Y-61079047D01*
X144399047Y-61031428D01*
X144351428Y-60936190D01*
X144351428Y-60888571D01*
X144399047Y-60793333D01*
X144494285Y-60745714D01*
X144637142Y-60745714D01*
X144732380Y-60793333D01*
X145351428Y-61412380D02*
X145256190Y-61364761D01*
X145208571Y-61317142D01*
X145160952Y-61221904D01*
X145160952Y-60936190D01*
X145208571Y-60840952D01*
X145256190Y-60793333D01*
X145351428Y-60745714D01*
X145494285Y-60745714D01*
X145589523Y-60793333D01*
X145637142Y-60840952D01*
X145684761Y-60936190D01*
X145684761Y-61221904D01*
X145637142Y-61317142D01*
X145589523Y-61364761D01*
X145494285Y-61412380D01*
X145351428Y-61412380D01*
X146113333Y-61412380D02*
X146113333Y-60745714D01*
X146113333Y-60936190D02*
X146160952Y-60840952D01*
X146208571Y-60793333D01*
X146303809Y-60745714D01*
X146399047Y-60745714D01*
X147446666Y-61126666D02*
X147922857Y-61126666D01*
X147351428Y-61412380D02*
X147684761Y-60412380D01*
X148018095Y-61412380D01*
X167430476Y-80371904D02*
X167430476Y-79571904D01*
X167620952Y-79571904D01*
X167735238Y-79610000D01*
X167811428Y-79686190D01*
X167849523Y-79762380D01*
X167887619Y-79914761D01*
X167887619Y-80029047D01*
X167849523Y-80181428D01*
X167811428Y-80257619D01*
X167735238Y-80333809D01*
X167620952Y-80371904D01*
X167430476Y-80371904D01*
X165347619Y-80295714D02*
X165309523Y-80333809D01*
X165195238Y-80371904D01*
X165119047Y-80371904D01*
X165004761Y-80333809D01*
X164928571Y-80257619D01*
X164890476Y-80181428D01*
X164852380Y-80029047D01*
X164852380Y-79914761D01*
X164890476Y-79762380D01*
X164928571Y-79686190D01*
X165004761Y-79610000D01*
X165119047Y-79571904D01*
X165195238Y-79571904D01*
X165309523Y-79610000D01*
X165347619Y-79648095D01*
X162617142Y-79952857D02*
X162731428Y-79990952D01*
X162769523Y-80029047D01*
X162807619Y-80105238D01*
X162807619Y-80219523D01*
X162769523Y-80295714D01*
X162731428Y-80333809D01*
X162655238Y-80371904D01*
X162350476Y-80371904D01*
X162350476Y-79571904D01*
X162617142Y-79571904D01*
X162693333Y-79610000D01*
X162731428Y-79648095D01*
X162769523Y-79724285D01*
X162769523Y-79800476D01*
X162731428Y-79876666D01*
X162693333Y-79914761D01*
X162617142Y-79952857D01*
X162350476Y-79952857D01*
X159829523Y-80143333D02*
X160210476Y-80143333D01*
X159753333Y-80371904D02*
X160020000Y-79571904D01*
X160286666Y-80371904D01*
D11*
G04 #@! TO.P,J4,3*
G04 #@! TO.N,+5V*
X185420000Y-66040000D03*
G04 #@! TO.P,J4,2*
G04 #@! TO.N,GND*
X182880000Y-66040000D03*
D12*
G04 #@! TO.P,J4,1*
G04 #@! TO.N,Net-(J4-Pad1)*
X180340000Y-66040000D03*
G04 #@! TD*
D13*
G04 #@! TO.P,J6,2*
G04 #@! TO.N,GND*
X180340000Y-77470000D03*
D14*
G04 #@! TO.P,J6,1*
G04 #@! TO.N,+5V*
X182880000Y-77470000D03*
G04 #@! TD*
D13*
G04 #@! TO.P,J5,4*
G04 #@! TO.N,Net-(J4-Pad1)*
X167640000Y-77470000D03*
G04 #@! TO.P,J5,3*
G04 #@! TO.N,Net-(J3-Pad1)*
X165100000Y-77470000D03*
G04 #@! TO.P,J5,2*
G04 #@! TO.N,Net-(J2-Pad1)*
X162560000Y-77470000D03*
D14*
G04 #@! TO.P,J5,1*
G04 #@! TO.N,Net-(J1-Pad1)*
X160020000Y-77470000D03*
G04 #@! TD*
D11*
G04 #@! TO.P,J1,3*
G04 #@! TO.N,+5V*
X147320000Y-66040000D03*
G04 #@! TO.P,J1,2*
G04 #@! TO.N,GND*
X144780000Y-66040000D03*
D12*
G04 #@! TO.P,J1,1*
G04 #@! TO.N,Net-(J1-Pad1)*
X142240000Y-66040000D03*
G04 #@! TD*
G04 #@! TO.P,J2,1*
G04 #@! TO.N,Net-(J2-Pad1)*
X154940000Y-66040000D03*
D11*
G04 #@! TO.P,J2,2*
G04 #@! TO.N,GND*
X157480000Y-66040000D03*
G04 #@! TO.P,J2,3*
G04 #@! TO.N,+5V*
X160020000Y-66040000D03*
G04 #@! TD*
D12*
G04 #@! TO.P,J3,1*
G04 #@! TO.N,Net-(J3-Pad1)*
X167640000Y-66040000D03*
D11*
G04 #@! TO.P,J3,2*
G04 #@! TO.N,GND*
X170180000Y-66040000D03*
G04 #@! TO.P,J3,3*
G04 #@! TO.N,+5V*
X172720000Y-66040000D03*
G04 #@! TD*
D15*
G04 #@! TO.N,+5V*
X172720000Y-66040000D02*
X172720000Y-66270000D01*
X173990000Y-66040000D02*
X172720000Y-66040000D01*
X177800000Y-62230000D02*
X173990000Y-66040000D01*
X184150000Y-62230000D02*
X177800000Y-62230000D01*
X185420000Y-66040000D02*
X185420000Y-63500000D01*
X185420000Y-63500000D02*
X184150000Y-62230000D01*
X161290000Y-66040000D02*
X160020000Y-66040000D01*
X165100000Y-62230000D02*
X161290000Y-66040000D01*
X171450000Y-62230000D02*
X165100000Y-62230000D01*
X172720000Y-66040000D02*
X172720000Y-63500000D01*
X172720000Y-63500000D02*
X171450000Y-62230000D01*
X160020000Y-66040000D02*
X160020000Y-63500000D01*
X160020000Y-63500000D02*
X158750000Y-62230000D01*
X158750000Y-62230000D02*
X152400000Y-62230000D01*
X152400000Y-62230000D02*
X148590000Y-66040000D01*
X148590000Y-66040000D02*
X147320000Y-66040000D01*
X185420000Y-66040000D02*
X185420000Y-73660000D01*
X182880000Y-76200000D02*
X182880000Y-77470000D01*
X185420000Y-73660000D02*
X182880000Y-76200000D01*
G04 #@! TO.N,GND*
X157480000Y-64770000D02*
X157480000Y-66040000D01*
X153670000Y-63500000D02*
X156210000Y-63500000D01*
X144780000Y-66040000D02*
X144780000Y-68580000D01*
X144780000Y-68580000D02*
X146050000Y-69850000D01*
X146050000Y-69850000D02*
X151130000Y-69850000D01*
X151130000Y-69850000D02*
X152400000Y-68580000D01*
X156210000Y-63500000D02*
X157480000Y-64770000D01*
X152400000Y-68580000D02*
X152400000Y-64770000D01*
X152400000Y-64770000D02*
X153670000Y-63500000D01*
X168910000Y-63500000D02*
X170180000Y-64770000D01*
X166370000Y-63500000D02*
X168910000Y-63500000D01*
X170180000Y-64770000D02*
X170180000Y-66040000D01*
X157480000Y-68580000D02*
X158750000Y-69850000D01*
X157480000Y-66040000D02*
X157480000Y-68580000D01*
X158750000Y-69850000D02*
X163830000Y-69850000D01*
X163830000Y-69850000D02*
X165100000Y-68580000D01*
X165100000Y-68580000D02*
X165100000Y-64770000D01*
X165100000Y-64770000D02*
X166370000Y-63500000D01*
X181610000Y-63500000D02*
X182880000Y-64770000D01*
X182880000Y-64770000D02*
X182880000Y-66040000D01*
X170180000Y-68580000D02*
X171450000Y-69850000D01*
X170180000Y-66040000D02*
X170180000Y-68580000D01*
X171450000Y-69850000D02*
X176530000Y-69850000D01*
X176530000Y-69850000D02*
X177800000Y-68580000D01*
X179070000Y-63500000D02*
X181610000Y-63500000D01*
X177800000Y-68580000D02*
X177800000Y-64770000D01*
X177800000Y-64770000D02*
X179070000Y-63500000D01*
X180340000Y-77470000D02*
X180340000Y-76200000D01*
X182880000Y-73660000D02*
X182880000Y-66040000D01*
X180340000Y-76200000D02*
X182880000Y-73660000D01*
G04 #@! TO.N,Net-(J1-Pad1)*
X142240000Y-66040000D02*
X142240000Y-68580000D01*
X151130000Y-77470000D02*
X160020000Y-77470000D01*
X142240000Y-68580000D02*
X151130000Y-77470000D01*
G04 #@! TO.N,Net-(J2-Pad1)*
X162560000Y-76200000D02*
X162560000Y-77470000D01*
X154940000Y-66040000D02*
X154940000Y-68580000D01*
X154940000Y-68580000D02*
X162560000Y-76200000D01*
G04 #@! TO.N,Net-(J3-Pad1)*
X167640000Y-66040000D02*
X167640000Y-72390000D01*
X165100000Y-74930000D02*
X165100000Y-77470000D01*
X167640000Y-72390000D02*
X165100000Y-74930000D01*
G04 #@! TO.N,Net-(J4-Pad1)*
X171450000Y-77470000D02*
X167640000Y-77470000D01*
X180340000Y-66040000D02*
X180340000Y-68580000D01*
X180340000Y-68580000D02*
X171450000Y-77470000D01*
G04 #@! TD*
M02*
